   <svg  width="210mm" height="297mm" version="1.1" viewBox="0 0 210 297" xmlns="http://www.w3.org/2000/svg" xmlns:cc="http://creativecommons.org/ns#" xmlns:dc="http://purl.org/dc/elements/1.1/" xmlns:rdf="http://www.w3.org/1999/02/22-rdf-syntax-ns#">
  <g transform="translate(-.37418 2.058)" stroke="#000">
    <path d="m151.86 125.89a45.244 45.244 0 0 1-44.249 46.214 45.244 45.244 0 0 1-46.217-44.245 45.244 45.244 0 0 1 44.242-46.221 45.244 45.244 0 0 1 46.224 44.238" stroke-width="3"/>
    <path d="m146.21 126.68a39.534 38.728 0 0 1-38.665 39.559 39.534 38.728 0 0 1-40.385-37.874 39.534 38.728 0 0 1 38.658-39.565 39.534 38.728 0 0 1 40.391 37.868" fill="#f843dd" stroke-width="4.4978"/>
    <path d="m74.461 147.52s11.038-10.664 10.477 0.56127 36.295-40.972 27.315-12.535c-8.9802 28.437 22.825-31.431 22.825-31.431" fill="none" stroke-width=".26458px"/>
    <path transform="scale(.26458)" d="m386.02 618.53c-26.025-3.3394-50.696-13.682-71.486-29.969-8.9311-6.9965-20.124-18.854-27.471-29.1l-2.6238-3.6594 5.5015-4.3181c6.2197-4.8818 14.94-9.5484 19.181-10.265 3.5266-0.5958 7.1008 0.93454 8.7658 3.7531 1.3655 2.3116 2.6438 9.4647 2.6514 14.836 7e-3 4.9892 0.87694 6.4943 3.7535 6.4943 6.1013 0 14.66-7.3041 48.323-41.242 15.113-15.236 30.819-30.482 34.903-33.881 7.9126-6.5855 14.262-10.437 17.206-10.437 5.5604 0 5.2688 9.5684-0.91563 30.047-7.3393 24.303-8.1334 32.793-2.9122 31.136 7.7796-2.4691 42.214-58.426 85.623-139.14 2.4576-4.5697 4.6548-8.3074 4.8826-8.306 0.22777 1e-3 2.6415 3.0066 5.3639 6.6782 26.565 35.828 33.982 81.287 20.082 123.07-17.07 51.313-62.967 88.124-117.66 94.368-7.5221 0.85871-26.246 0.8208-33.166-0.0672z" fill="#fffff9" stroke-width="8.0176"/>
  </g>
</svg>